<svg xmlns="http://www.w3.org/2000/svg" width="62" height="62" viewBox="0 0 62 62">
  <path id="currency_exchange_FILL0_wght400_GRAD0_opsz48" d="M33,64a28.012,28.012,0,0,1-15.218-4.65A40.3,40.3,0,0,1,6.227,48.711v9.652H2V41.455H18.909v4.227H9.257A34.759,34.759,0,0,0,19.508,55.44,24.508,24.508,0,0,0,33,59.773a25.942,25.942,0,0,0,10.392-2.114A26.843,26.843,0,0,0,57.659,43.392,25.942,25.942,0,0,0,59.773,33H64a30.1,30.1,0,0,1-2.431,12.048A31.238,31.238,0,0,1,45.048,61.569,30.1,30.1,0,0,1,33,64ZM30.957,53.22v-3.8A13.126,13.126,0,0,1,25.637,46.7,14.753,14.753,0,0,1,22.009,41.6L25.6,40.4A8.035,8.035,0,0,0,28.6,44.625a8.159,8.159,0,0,0,4.9,1.55A7.693,7.693,0,0,0,38.178,44.8a4.293,4.293,0,0,0,1.867-3.628,5.054,5.054,0,0,0-1.761-3.91A24.468,24.468,0,0,0,31.8,33.7a20.48,20.48,0,0,1-6.341-3.8,7.289,7.289,0,0,1-2.114-5.5,7.321,7.321,0,0,1,2.114-5.284A9.382,9.382,0,0,1,31.1,16.443V12.85h3.875v3.593a9.57,9.57,0,0,1,4.65,1.691,10.025,10.025,0,0,1,3.17,3.875l-3.382,1.62A7.715,7.715,0,0,0,36.8,20.67a6.678,6.678,0,0,0-3.664-.986,6.751,6.751,0,0,0-4.333,1.268A4.185,4.185,0,0,0,27.223,24.4,4.227,4.227,0,0,0,29.055,28a30.236,30.236,0,0,0,5.918,3.03,19.646,19.646,0,0,1,6.9,4.3,8.373,8.373,0,0,1,2.043,5.848,8.142,8.142,0,0,1-.634,3.241,7.235,7.235,0,0,1-1.8,2.536,9.253,9.253,0,0,1-2.853,1.726,14.128,14.128,0,0,1-3.8.881V53.22ZM2,33A30.1,30.1,0,0,1,4.431,20.952,31.238,31.238,0,0,1,20.952,4.431,30.1,30.1,0,0,1,33,2,28.012,28.012,0,0,1,48.218,6.65,40.3,40.3,0,0,1,59.773,17.289V7.636H64V24.545H47.091V20.318h9.652A34.9,34.9,0,0,0,46.527,10.56,24.444,24.444,0,0,0,33,6.227,25.942,25.942,0,0,0,22.608,8.341,26.843,26.843,0,0,0,8.341,22.608,25.942,25.942,0,0,0,6.227,33Z" transform="translate(-2 -2)" fill="#fff"/>
</svg>
