<svg xmlns="http://www.w3.org/2000/svg" width="75.869" height="62.075" viewBox="0 0 75.869 62.075">
  <path id="screen_search_desktop_FILL0_wght400_GRAD0_opsz48" d="M52.263,47.3l2.759-2.759-7.587-7.587a18.234,18.234,0,0,0,1.595-3.061,8.754,8.754,0,0,0,.647-3.319A11.484,11.484,0,0,0,38.038,18.932,11.484,11.484,0,0,0,26.4,30.571,11.484,11.484,0,0,0,38.038,42.21a9.88,9.88,0,0,0,3.578-.647,23.363,23.363,0,0,0,3.319-1.595ZM38.038,37.9a7.359,7.359,0,0,1-7.328-7.328,7.316,7.316,0,0,1,12.5-5.173,7.285,7.285,0,0,1,0,10.346A7.055,7.055,0,0,1,38.038,37.9ZM4.586,68.075a2.587,2.587,0,1,1,0-5.173h70.7a2.587,2.587,0,1,1,0,5.173Zm6.035-10.346A4.963,4.963,0,0,1,7,56.177a4.963,4.963,0,0,1-1.552-3.621V11.173A4.963,4.963,0,0,1,7,7.552,4.963,4.963,0,0,1,10.621,6H69.248a4.963,4.963,0,0,1,3.621,1.552,4.963,4.963,0,0,1,1.552,3.621V52.556a5.3,5.3,0,0,1-5.173,5.173Zm0-5.173H69.248V11.173H10.621Zm0,0v0Z" transform="translate(-2 -6)" fill="#fff"/>
</svg>
