<svg xmlns="http://www.w3.org/2000/svg" width="79.75" height="58" viewBox="0 0 79.75 58">
  <path id="payments_FILL0_wght400_GRAD0_opsz48" d="M47.313,42.438A10.83,10.83,0,0,1,36.438,31.563,10.83,10.83,0,0,1,47.313,20.688,10.83,10.83,0,0,1,58.188,31.563,10.83,10.83,0,0,1,47.313,42.438Zm-29,12.688a5.415,5.415,0,0,1-5.437-5.437V13.438A5.415,5.415,0,0,1,18.313,8h58a5.415,5.415,0,0,1,5.438,5.438v36.25a5.415,5.415,0,0,1-5.437,5.438Zm9.063-5.437H67.25a8.974,8.974,0,0,1,9.063-9.062V22.5a8.974,8.974,0,0,1-9.062-9.062H27.375A8.974,8.974,0,0,1,18.313,22.5V40.625a8.974,8.974,0,0,1,9.063,9.063ZM70.875,66H7.438a5.244,5.244,0,0,1-3.852-1.586A5.244,5.244,0,0,1,2,60.563V18.875H7.438V60.563H70.875ZM18.313,49.688v0Z" transform="translate(-2 -8)" fill="#fff"/>
</svg>
