<svg xmlns="http://www.w3.org/2000/svg" width="68" height="68" viewBox="0 0 68 68">
  <path id="table_view_FILL0_wght400_GRAD0_opsz48" d="M140.778,284a5.683,5.683,0,0,1-5.667-5.667V236.778a5.683,5.683,0,0,1,5.667-5.667h41.556A5.683,5.683,0,0,1,188,236.778v41.556A5.683,5.683,0,0,1,182.333,284Zm0-37.211h41.556V236.778H140.778Zm15.678,15.867h10.2v-10.2h-10.2Zm0,15.678h10.2V268.322h-10.2Zm-15.678-15.678h10.011v-10.2H140.778Zm31.544,0h10.011v-10.2H172.322Zm-31.544,15.678h10.011V268.322H140.778Zm31.544,0h10.011V268.322H172.322Zm-46.656-9.444A5.683,5.683,0,0,1,120,263.222V221.667A5.683,5.683,0,0,1,125.667,216h41.556a5.683,5.683,0,0,1,5.667,5.667v6.611h-5.667v-6.611H125.667v41.556h6.611v5.667Z" transform="translate(-120 -216)" fill="#fff"/>
</svg>
