<svg xmlns="http://www.w3.org/2000/svg" width="77.293" height="54.297" viewBox="0 0 77.293 54.297">
  <path id="group_FILL0_wght400_GRAD0_opsz48" d="M1.9,63.247V55.028a10.184,10.184,0,0,1,1.574-5.552A9.578,9.578,0,0,1,7.846,45.76a69.322,69.322,0,0,1,11.5-4.022,45.111,45.111,0,0,1,10.536-1.224,44.561,44.561,0,0,1,10.492,1.224A69.914,69.914,0,0,1,51.826,45.76a9.841,9.841,0,0,1,4.415,3.716,9.981,9.981,0,0,1,1.618,5.552v8.219Zm61.2,0V55.028a14.152,14.152,0,0,0-2.8-9.05,20.48,20.48,0,0,0-7.345-5.727,86.711,86.711,0,0,1,11.367,2.055,40.064,40.064,0,0,1,8.656,3.1,13.533,13.533,0,0,1,4.547,4.109,9.586,9.586,0,0,1,1.661,5.508v8.219ZM29.879,35.181A12.579,12.579,0,0,1,16.764,22.065,12.579,12.579,0,0,1,29.879,8.95,12.579,12.579,0,0,1,42.995,22.065,12.579,12.579,0,0,1,29.879,35.181ZM61.356,22.065A12.579,12.579,0,0,1,48.241,35.181a19.553,19.553,0,0,1-2.142-.131,9.248,9.248,0,0,1-2.142-.481,14.35,14.35,0,0,0,3.191-5.377,21.9,21.9,0,0,0,1.093-7.126,20.352,20.352,0,0,0-1.093-6.951,18.588,18.588,0,0,0-3.191-5.552A18.452,18.452,0,0,1,46.1,9.125a14.735,14.735,0,0,1,2.142-.175A12.579,12.579,0,0,1,61.356,22.065ZM7.146,58H52.613V55.028a5,5,0,0,0-.831-2.71,4.571,4.571,0,0,0-2.055-1.836,59.038,59.038,0,0,0-10.58-3.76,42.28,42.28,0,0,0-9.268-.962,42.878,42.878,0,0,0-9.312.962,58.518,58.518,0,0,0-10.623,3.76,4.337,4.337,0,0,0-2.011,1.836,5.2,5.2,0,0,0-.787,2.71ZM29.879,29.934a7.626,7.626,0,0,0,7.869-7.869A7.626,7.626,0,0,0,29.879,14.2a7.626,7.626,0,0,0-7.869,7.869,7.626,7.626,0,0,0,7.869,7.869ZM29.879,58ZM29.879,22.065Z" transform="translate(-1.9 -8.95)" fill="#fff"/>
</svg>
